<?xml version="1.0" encoding="UTF-8"?>
<svg id="Layer_1" data-name="Layer 1" xmlns="http://www.w3.org/2000/svg" viewBox="0 0 1024 1024">
  <defs>
    <style>
      .cls-1 {
        fill: #fff;
      }

      .cls-2 {
        fill: #437c78;
      }
    </style>
  </defs>
  <rect class="cls-1" width="1024" height="1024" rx="144.88" ry="144.88"/>
  <g>
    <path class="cls-2" d="M489.97,338.53c-6.19,18.24-15.92,40.57-31.23,65.33-3.83,6.17-2.15,14.27,3.78,18.47,23.38,16.55,76.47,61.9,86.07,138.03,1.4,11.17,14.72,16.22,23.02,8.62,18.85-17.27,49.8-40.83,91.92-57.27,11.87-4.63,11.77-21.34-.15-25.85-44.81-16.93-111.06-56.64-147.55-148.05-4.76-11.92-21.77-11.42-25.89.72h.03Z"/>
    <path class="cls-2" d="M536.26,684.93c6.19-18.24,15.92-40.57,31.23-65.33,3.83-6.17,2.15-14.27-3.78-18.47-23.38-16.55-76.47-61.9-86.07-138.03-1.4-11.17-14.72-16.22-23.02-8.62-18.85,17.27-49.8,40.83-91.92,57.27-11.87,4.63-11.77,21.34.15,25.85,44.81,16.93,111.06,56.64,147.55,148.05,4.76,11.92,21.77,11.42,25.89-.72h-.03,0Z"/>
    <path class="cls-2" d="M330.68,711.24h-66.54c-110.03,0-199.24-89.21-199.24-199.24h0c0-110.03,89.21-199.24,199.24-199.24h71.18c21.02,0,34.86,21.92,25.79,40.89-28.06,58.74-63.89,175.12-.97,311.9,9.82,21.35-5.97,45.69-29.47,45.69h.01Z"/>
    <path class="cls-2" d="M693.32,312.76h66.54c110.03,0,199.24,89.21,199.24,199.24h0c0,110.03-89.21,199.24-199.24,199.24h-71.18c-21.02,0-34.86-21.92-25.79-40.89,28.06-58.74,63.89-175.12.97-311.9-9.82-21.35,5.97-45.69,29.47-45.69h-.01,0Z"/>
  </g>
</svg>