<?xml version="1.0" encoding="UTF-8"?>
<svg id="Layer_1" data-name="Layer 1" xmlns="http://www.w3.org/2000/svg" viewBox="0 0 796.97 512">
  <defs>
    <style>
      .cls-1 {
        fill: #84b179;
      }
    </style>
  </defs>
  <path class="cls-1" d="M384.91,123.69c-4.73,13.93-12.16,31-23.85,49.9-2.92,4.72-1.64,10.9,2.89,14.11,17.86,12.64,58.42,47.29,65.75,105.44,1.08,8.54,11.24,12.4,17.59,6.59,14.4-13.19,38.04-31.19,70.23-43.75,9.07-3.54,8.98-16.3-.12-19.75-34.23-12.94-84.84-43.26-112.71-113.1-3.63-9.1-16.63-8.73-19.78.55Z"/>
  <path class="cls-1" d="M420.27,388.31c4.73-13.93,12.16-31,23.85-49.9,2.92-4.72,1.64-10.9-2.89-14.11-17.86-12.64-58.42-47.29-65.75-105.44-1.08-8.54-11.24-12.4-17.59-6.59-14.4,13.19-38.04,31.19-70.23,43.75-9.07,3.54-8.98,16.3.12,19.75,34.23,12.94,84.84,43.26,112.71,113.1,3.63,9.1,16.63,8.73,19.78-.55Z"/>
  <path class="cls-1" d="M218.04,154.08h-95.84c-.06-.77-.1-1.55-.1-2.34,0-13.05,8.91-23.63,19.91-23.63h87.7c8.04-15.64,14.49-24.32,14.49-24.32h-91.99C68.14,103.8,0,171.94,0,256h0c0,84.06,68.14,152.2,152.2,152.2h91.99c-64.52-105.77-47.44-199.5-26.16-254.12Z"/>
  <path class="cls-1" d="M644.77,103.8h-91.99s6.45,8.67,14.49,24.32h85.39c11,0,19.91,10.58,19.91,23.63,0,.79-.04,1.57-.1,2.34h-93.53c21.28,54.62,38.37,148.35-26.16,254.12h91.99c84.06,0,152.2-68.14,152.2-152.2h0c0-84.06-68.14-152.2-152.2-152.2Z"/>
</svg>