<?xml version="1.0" encoding="UTF-8"?>
<svg id="Layer_1" data-name="Layer 1" xmlns="http://www.w3.org/2000/svg" viewBox="0 0 796.97 512">
  <defs>
    <style>
      .cls-1 {
        fill: #427b77;
      }
    </style>
  </defs>
  <path class="cls-1" d="M390.98,104.67c-4.8,14.15-12.35,31.48-24.23,50.69-2.97,4.79-1.67,11.07,2.93,14.33,18.14,12.84,59.34,48.03,66.79,107.11,1.09,8.67,11.42,12.59,17.86,6.69,14.63-13.4,38.64-31.68,71.33-44.44,9.21-3.59,9.13-16.56-.12-20.06-34.77-13.14-86.18-43.95-114.49-114.88-3.69-9.25-16.89-8.86-20.09.56Z"/>
  <path class="cls-1" d="M426.9,373.47c4.8-14.15,12.35-31.48,24.23-50.69,2.97-4.79,1.67-11.07-2.93-14.33-18.14-12.84-59.34-48.03-66.79-107.11-1.09-8.67-11.42-12.59-17.86-6.69-14.63,13.4-38.64,31.68-71.33,44.44-9.21,3.59-9.13,16.56.12,20.06,34.77,13.14,86.18,43.95,114.49,114.88,3.69,9.25,16.89,8.86,20.09-.56Z"/>
  <path class="cls-1" d="M206.23,393.67h-51.63c-85.38,0-154.6-69.22-154.6-154.6h0C0,153.69,69.22,84.47,154.6,84.47h55.23c16.31,0,27.05,17.01,20.01,31.73-21.77,45.58-49.58,135.89-.75,242.02,7.62,16.57-4.63,35.45-22.87,35.45Z"/>
  <path class="cls-1" d="M590.74,393.88h51.63c85.38,0,154.6-69.22,154.6-154.6h0c0-85.38-69.22-154.6-154.6-154.6h-55.23c-16.31,0-27.05,17.01-20.01,31.73,21.77,45.58,49.58,135.89.75,242.02-7.62,16.57,4.63,35.45,22.87,35.45Z"/>
</svg>