<?xml version="1.0" encoding="UTF-8"?>
<svg id="Layer_1" data-name="Layer 1" xmlns="http://www.w3.org/2000/svg" viewBox="0 0 931.55 274.61">
  <defs>
    <style>
      .cls-1 {
        fill: #437c78;
      }
    </style>
  </defs>
  <path class="cls-1" d="M379.75,82.85h48.28c30.31,0,48.58,19.49,48.58,54.52s-16.75,54.37-47.06,54.37h-49.8v-108.9ZM407.17,169.36h18.12c17.06,0,23.91-12.18,23.91-31.98s-6.85-32.14-23.91-32.14h-18.12v64.12Z"/>
  <path class="cls-1" d="M523.83,194.19c-26.04,0-41.73-17.21-41.73-41.43s15.69-41.43,41.73-41.43,41.58,17.21,41.58,41.43-15.69,41.43-41.58,41.43ZM523.83,175.91c10.66,0,17.21-8.07,17.21-23.15s-6.55-23.15-17.21-23.15-17.36,8.07-17.36,23.15,6.55,23.15,17.36,23.15Z"/>
  <path class="cls-1" d="M642.48,168.75c0,16.45-12.49,25.43-34.12,25.43-27.87,0-38.53-12.49-39.29-28.33h22.85c.76,7.77,5.94,11.58,15.54,11.58,6.85,0,10.66-2.28,10.66-6.7,0-6.7-7.31-7.62-19.65-10.36-13.25-2.89-27.87-7.77-27.87-24.06,0-14.16,12.18-24.98,34.12-24.98,24.98,0,34.73,12.64,35.49,26.35h-22.85c-.76-6.24-4.11-9.6-12.03-9.6-6.85,0-10.36,2.44-10.36,6.24,0,5.48,4.87,5.64,16.91,8.22,15.38,3.35,30.61,8.53,30.61,26.2Z"/>
  <path class="cls-1" d="M702.79,168.14h24.22c-4.26,15.69-16.45,26.04-37.62,26.04-25.89,0-41.58-17.06-41.58-41.43s15.38-41.43,40.21-41.43c26.65,0,40.21,19.49,40.21,47.82h-56.05c0,10.97,8.07,16.75,16.75,16.75s12.34-3.96,13.86-7.77ZM672.18,144.39h31.68c0-10.81-6.55-16.3-15.84-16.3s-15.84,5.48-15.84,16.3Z"/>
  <path class="cls-1" d="M761.13,82.85v108.9h-24.37v-108.9h24.37Z"/>
  <path class="cls-1" d="M821.74,193.27c-6.7,19.95-14.01,25.43-30.46,25.43-4.11,0-8.53-.46-13.56-1.52v-18.28h.3c6.7,1.52,12.18.76,14.77-3.2,2.28-3.5,1.83-8.38-.61-15.23l-25.43-66.71h24.37l17.67,51.17h.3l14.77-51.17h24.37l-26.5,79.5Z"/>
  <path class="cls-1" d="M175.73,80.19c-2.02,5.96-5.2,13.26-10.2,21.34-1.25,2.02-.7,4.66,1.23,6.03,7.64,5.41,24.99,20.22,28.12,45.1.46,3.65,4.81,5.3,7.52,2.82,6.16-5.64,16.27-13.34,30.03-18.71,3.88-1.51,3.84-6.97-.05-8.45-14.64-5.53-36.29-18.51-48.21-48.37-1.55-3.89-7.11-3.73-8.46.24h0Z"/>
  <path class="cls-1" d="M190.85,193.38c2.02-5.96,5.2-13.26,10.2-21.34,1.25-2.02.7-4.66-1.23-6.03-7.64-5.41-24.99-20.22-28.12-45.1-.46-3.65-4.81-5.3-7.52-2.82-6.16,5.64-16.27,13.34-30.03,18.71-3.88,1.51-3.84,6.97.05,8.45,14.64,5.53,36.29,18.51,48.21,48.37,1.55,3.89,7.11,3.73,8.46-.24h0Z"/>
  <path class="cls-1" d="M123.68,201.97h-21.74c-35.95,0-65.1-29.15-65.1-65.1h0c0-35.95,29.15-65.1,65.1-65.1h23.26c6.87,0,11.39,7.16,8.43,13.36-9.17,19.19-20.88,57.22-.32,101.91,3.21,6.98-1.95,14.93-9.63,14.93h0Z"/>
  <path class="cls-1" d="M245.52,70.5h21.74c35.95,0,65.1,29.15,65.1,65.1h0c0,35.95-29.15,65.1-65.1,65.1h-23.26c-6.87,0-11.39-7.16-8.43-13.36,9.17-19.19,20.88-57.22.32-101.91-3.21-6.98,1.95-14.93,9.63-14.93h0Z"/>
</svg>