<?xml version="1.0" encoding="UTF-8"?>
<svg id="Layer_1" data-name="Layer 1" xmlns="http://www.w3.org/2000/svg" viewBox="0 0 796.97 512">
  <defs>
    <style>
      .cls-1 {
        fill: #25b99a;
      }
    </style>
  </defs>
  <path class="cls-1" d="M386.75,141.68c-4.08,12.04-10.51,26.78-20.61,43.11-2.52,4.08-1.42,9.42,2.5,12.19,15.43,10.92,50.47,40.86,56.81,91.11.93,7.38,9.71,10.71,15.2,5.69,12.44-11.39,32.87-26.95,60.68-37.8,7.83-3.06,7.76-14.09-.1-17.06-29.58-11.18-73.31-37.38-97.38-97.72-3.14-7.86-14.37-7.54-17.09.48Z"/>
  <path class="cls-1" d="M417.31,370.32c4.08-12.04,10.51-26.78,20.61-43.11,2.52-4.08,1.42-9.42-2.5-12.19-15.43-10.92-50.47-40.86-56.81-91.11-.93-7.38-9.71-10.71-15.2-5.69-12.44,11.39-32.87,26.95-60.68,37.8-7.83,3.06-7.76,14.09.1,17.06,29.58,11.18,73.31,37.38,97.38,97.72,3.14,7.86,14.37,7.54,17.09-.48Z"/>
  <path class="cls-1" d="M242.57,167.94h-82.81c-.05-.66-.09-1.34-.09-2.02,0-11.28,7.7-20.42,17.2-20.42h75.77c6.94-13.51,12.52-21.01,12.52-21.01h-79.48c-72.63,0-131.51,58.88-131.51,131.51h0c0,72.63,58.88,131.51,131.51,131.51h79.48c-55.75-91.39-40.99-172.38-22.6-219.57Z"/>
  <path class="cls-1" d="M611.28,124.49h-79.48s5.57,7.5,12.52,21.01h73.78c9.5,0,17.2,9.14,17.2,20.42,0,.68-.03,1.35-.09,2.02h-80.81c18.39,47.19,33.15,128.18-22.6,219.57h79.48c72.63,0,131.51-58.88,131.51-131.51h0c0-72.63-58.88-131.51-131.51-131.51Z"/>
</svg>